<svg width="14" height="14" viewBox="0 0 14 14" fill="none" xmlns="http://www.w3.org/2000/svg">
<path fill-rule="evenodd" clip-rule="evenodd" d="M2.99967 6.66667H3.66634C5.1391 6.66667 6.33301 7.86057 6.33301 9.33333V10.6667C6.33301 12.1394 5.1391 13.3333 3.66634 13.3333H2.99967C1.52692 13.3333 0.333008 12.1394 0.333008 10.6667V9.33333C0.333008 7.86057 1.52692 6.66667 2.99967 6.66667ZM2.99967 8C2.26329 8 1.66634 8.59695 1.66634 9.33333V10.6667C1.66634 11.403 2.26329 12 2.99967 12H3.66634C4.40272 12 4.99967 11.403 4.99967 10.6667V9.33333C4.99967 8.59695 4.40272 8 3.66634 8H2.99967ZM2.66634 0C3.95501 0 4.99967 1.04467 4.99967 2.33333V3C4.99967 4.28866 3.95501 5.33333 2.66634 5.33333C1.37768 5.33333 0.333008 4.28866 0.333008 3V2.33333C0.333008 1.04467 1.37768 0 2.66634 0ZM2.66634 1.33333C2.11406 1.33333 1.66634 1.78105 1.66634 2.33333V3C1.66634 3.55228 2.11406 4 2.66634 4C3.21863 4 3.66634 3.55228 3.66634 3V2.33333C3.66634 1.78105 3.21863 1.33333 2.66634 1.33333ZM10.333 6H10.9997C12.4724 6 13.6663 7.19391 13.6663 8.66667V10.6667C13.6663 12.1394 12.4724 13.3333 10.9997 13.3333H10.333C8.86025 13.3333 7.66634 12.1394 7.66634 10.6667V8.66667C7.66634 7.19391 8.86025 6 10.333 6ZM10.333 7.33333C9.59663 7.33333 8.99967 7.93029 8.99967 8.66667V10.6667C8.99967 11.403 9.59663 12 10.333 12H10.9997C11.7361 12 12.333 11.403 12.333 10.6667V8.66667C12.333 7.93029 11.7361 7.33333 10.9997 7.33333H10.333ZM8.66634 0H11.333C12.6217 0 13.6663 1.04467 13.6663 2.33333C13.6663 3.622 12.6217 4.66667 11.333 4.66667H8.66634C7.37768 4.66667 6.33301 3.622 6.33301 2.33333C6.33301 1.04467 7.37768 0 8.66634 0ZM8.66634 1.33333C8.11406 1.33333 7.66634 1.78105 7.66634 2.33333C7.66634 2.88562 8.11406 3.33333 8.66634 3.33333H11.333C11.8853 3.33333 12.333 2.88562 12.333 2.33333C12.333 1.78105 11.8853 1.33333 11.333 1.33333H8.66634Z" fill="#92929D"/>
</svg>
