<svg width="14" height="14" viewBox="0 0 14 14" fill="none" xmlns="http://www.w3.org/2000/svg">
<path fill-rule="evenodd" clip-rule="evenodd" d="M6.99967 13.6667C10.6816 13.6667 13.6663 10.6819 13.6663 7C13.6663 3.3181 10.6816 0.333336 6.99967 0.333336C3.31778 0.333336 0.333008 3.3181 0.333008 7C0.333008 10.6819 3.31778 13.6667 6.99967 13.6667ZM6.99967 12.4545C3.98721 12.4545 1.54513 10.0125 1.54513 7C1.54513 3.98754 3.98721 1.54546 6.99967 1.54546C10.0121 1.54546 12.4542 3.98754 12.4542 7C12.4542 10.0125 10.0121 12.4545 6.99967 12.4545ZM10.1459 4.62036C10.3039 4.14657 9.85311 3.69581 9.37932 3.85375L5.52237 5.13939C5.3414 5.19972 5.19939 5.34173 5.13907 5.5227L3.85342 9.37965C3.69549 9.85344 4.14624 10.3042 4.62003 10.1463L8.47698 8.86061C8.65795 8.80029 8.79996 8.65828 8.86028 8.4773L10.1459 4.62036ZM5.38664 8.61303L5.97307 6.85376L7.15964 8.02204L5.38664 8.61303ZM8.01925 7.16735L6.81844 5.98506L8.61271 5.38697L8.01925 7.16735Z" fill="#50B5FF"/>
</svg>
