<svg width="36" height="36" viewBox="0 0 36 36" fill="none" xmlns="http://www.w3.org/2000/svg">
<rect width="36" height="36" rx="10" fill="#50B5FF" fill-opacity="0.1"/>
<path fill-rule="evenodd" clip-rule="evenodd" d="M23.0541 14.1667L21.9167 12.8017V14.1667H23.0541ZM25.6667 15.2715V23.25C25.6667 24.9529 24.2862 26.3333 22.5833 26.3333H13.5833C11.8805 26.3333 10.5 24.9529 10.5 23.25V12.75C10.5 11.0471 11.8805 9.66666 13.5833 9.66666H20.7321C21.202 9.66666 21.6476 9.87538 21.9484 10.2364L25.2997 14.2579C25.5368 14.5425 25.6667 14.9011 25.6667 15.2715ZM24 15.8333H21.8333C20.9589 15.8333 20.25 15.1244 20.25 14.25V11.3333H13.5833C12.8009 11.3333 12.1667 11.9676 12.1667 12.75V23.25C12.1667 24.0324 12.8009 24.6667 13.5833 24.6667H22.5833C23.3657 24.6667 24 24.0324 24 23.25V15.8333ZM13.919 21H22.2476C22.387 21 22.5 21.0995 22.5 21.2222V22.4444C22.5 22.5672 22.387 22.6667 22.2476 22.6667H13.919C13.7797 22.6667 13.6667 22.5672 13.6667 22.4444V21.2222C13.6667 21.0995 13.7797 21 13.919 21Z" fill="#0062FF"/>
</svg>
