<svg width="14" height="14" viewBox="0 0 14 14" fill="none" xmlns="http://www.w3.org/2000/svg">
<path fill-rule="evenodd" clip-rule="evenodd" d="M7.605 4.65184V6.41666H9.31773C9.28125 5.72365 9.18092 5.0747 9.03302 4.49396C8.5745 4.57438 8.09583 4.62771 7.605 4.65184ZM6.43834 4.65393C5.93209 4.63087 5.43852 4.57678 4.96633 4.49396C4.81843 5.0747 4.7181 5.72365 4.68161 6.41666H6.43834V4.65393V4.65393ZM7.605 8.99424C8.12422 9.01977 8.62982 9.07797 9.11236 9.16635C9.21688 8.67606 9.28821 8.14412 9.31773 7.58333H7.605V8.99424ZM6.43834 8.99216V7.58333H4.68161C4.71114 8.14412 4.78247 8.67606 4.88699 9.16635C5.38313 9.07548 5.90366 9.01651 6.43834 8.99216ZM7.605 10.1625V12.0503C8.05853 11.7507 8.47697 11.1297 8.78847 10.2938C8.40943 10.2291 8.01286 10.1847 7.605 10.1625ZM6.43834 10.1602C6.01497 10.1815 5.60351 10.2268 5.21088 10.2938C5.53243 11.1566 5.96792 11.7906 6.43834 12.0783V10.1602ZM7.605 3.4836C7.96498 3.464 8.31616 3.42709 8.65426 3.37423C8.36137 2.70579 7.99624 2.20812 7.605 1.94969V3.4836ZM6.43834 3.48591V1.9217C6.03051 2.17115 5.64893 2.6808 5.34509 3.37423C5.69693 3.42923 6.06295 3.46698 6.43834 3.48591ZM1.78172 6.41666H3.51327C3.54963 5.64077 3.65808 4.90168 3.82853 4.22633C3.46512 4.11704 3.12217 3.98863 2.80494 3.84249C2.25265 4.57504 1.88782 5.45686 1.78172 6.41666ZM1.78172 7.58333C1.87535 8.43035 2.17048 9.21663 2.61812 9.89319C2.96427 9.72037 3.34448 9.56977 3.75123 9.44339C3.6251 8.85991 3.54379 8.23458 3.51327 7.58333H1.78172ZM12.2176 6.41666C12.1115 5.45686 11.7467 4.57504 11.1944 3.84249C10.8772 3.98863 10.5342 4.11704 10.1708 4.22633C10.3413 4.90168 10.4497 5.64077 10.4861 6.41666H12.2176ZM12.2176 7.58333H10.4861C10.4556 8.23458 10.3743 8.85991 10.2481 9.44339C10.6548 9.56977 11.0351 9.72037 11.3812 9.89319C11.8289 9.21663 12.124 8.43035 12.2176 7.58333ZM4.55102 11.6452C4.36834 11.3202 4.2063 10.9584 4.06745 10.5667C3.8305 10.6413 3.60571 10.7251 3.39528 10.8172C3.73978 11.1426 4.12832 11.4219 4.55102 11.6452ZM9.44833 11.6452C9.87102 11.4219 10.2596 11.1426 10.6041 10.8172C10.3936 10.7251 10.1688 10.6413 9.93189 10.5667C9.79304 10.9584 9.631 11.3202 9.44833 11.6452ZM4.55102 2.35482C4.237 2.52069 3.94183 2.71748 3.66956 2.94112C3.83509 3.00438 4.00806 3.06283 4.18758 3.11619C4.29725 2.84484 4.41873 2.59019 4.55102 2.35482ZM9.44833 2.35482C9.58062 2.59019 9.70209 2.84484 9.81177 3.11618C9.99127 3.06283 10.1642 3.00437 10.3298 2.94111C10.0575 2.71747 9.76235 2.52069 9.44833 2.35482ZM6.99967 13.4167C3.45585 13.4167 0.583008 10.5438 0.583008 6.99999C0.583008 3.45617 3.45585 0.583328 6.99967 0.583328C10.5435 0.583328 13.4163 3.45617 13.4163 6.99999C13.4163 10.5438 10.5435 13.4167 6.99967 13.4167Z" fill="#0062FF"/>
</svg>
