<svg width="14" height="14" viewBox="0 0 14 14" fill="none" xmlns="http://www.w3.org/2000/svg">
<path fill-rule="evenodd" clip-rule="evenodd" d="M7.17127 7.98278L12.4761 1.25393C12.7041 0.964794 13.1233 0.915191 13.4124 1.14314C13.7016 1.37109 13.7512 1.79028 13.5232 2.07942L7.74177 9.41275C7.49036 9.73164 7.01468 9.75361 6.73496 9.45924L3.84973 6.42293C3.59611 6.15602 3.60688 5.73405 3.87378 5.48042C4.14069 5.2268 4.56266 5.23757 4.81628 5.50447L7.17127 7.98278ZM12.333 6.40001C12.333 6.03182 12.6315 5.73334 12.9997 5.73334C13.3679 5.73334 13.6663 6.03182 13.6663 6.40001V11.2C13.6663 12.5623 12.562 13.6667 11.1997 13.6667H2.79967C1.43737 13.6667 0.333008 12.5623 0.333008 11.2V2.80001C0.333008 1.43771 1.43737 0.333344 2.79967 0.333344H9.93301C10.3012 0.333344 10.5997 0.63182 10.5997 1.00001C10.5997 1.3682 10.3012 1.66668 9.93301 1.66668H2.79967C2.17375 1.66668 1.66634 2.17409 1.66634 2.80001V11.2C1.66634 11.8259 2.17375 12.3333 2.79967 12.3333H11.1997C11.8256 12.3333 12.333 11.8259 12.333 11.2V6.40001Z" fill="#92929D"/>
</svg>
