<svg width="16" height="16" viewBox="0 0 16 16" fill="none" xmlns="http://www.w3.org/2000/svg">
<path fill-rule="evenodd" clip-rule="evenodd" d="M7.99935 0.666656C12.0494 0.666656 15.3327 3.9499 15.3327 7.99999C15.3327 12.0501 12.0494 15.3333 7.99935 15.3333C3.94926 15.3333 0.666016 12.0501 0.666016 7.99999C0.666016 3.9499 3.94926 0.666656 7.99935 0.666656ZM7.99935 1.99999C4.68564 1.99999 1.99935 4.68628 1.99935 7.99999C1.99935 11.3137 4.68564 14 7.99935 14C11.3131 14 13.9993 11.3137 13.9993 7.99999C13.9993 4.68628 11.3131 1.99999 7.99935 1.99999ZM7.99935 3.33332C8.36754 3.33332 8.66602 3.6318 8.66602 3.99999V7.67393L11.4086 9.80709C11.6993 10.0331 11.7516 10.452 11.5256 10.7426C11.2995 11.0332 10.8807 11.0856 10.5901 10.8596L7.59005 8.52623C7.42766 8.39992 7.33268 8.20572 7.33268 7.99999V3.99999C7.33268 3.6318 7.63116 3.33332 7.99935 3.33332Z" fill="#92929D"/>
</svg>
