<svg width="36" height="36" viewBox="0 0 36 36" fill="none" xmlns="http://www.w3.org/2000/svg">
<rect x="0.5" y="0.5" width="35" height="35" rx="9.5" stroke="#E2E2EA"/>
<path fill-rule="evenodd" clip-rule="evenodd" d="M14.5477 8.87302H22.2857C24.039 8.87302 25.4603 10.2943 25.4603 12.0476V24.8433C25.4603 25.7199 24.7497 26.4306 23.873 26.4306C23.5126 26.4306 23.1628 26.3079 22.8814 26.0827L18.4167 22.5105L13.952 26.0827C13.2675 26.6304 12.2686 26.5194 11.7209 25.8349C11.4957 25.5535 11.373 25.2037 11.373 24.8433V12.0476C11.373 10.2943 12.7944 8.87302 14.5477 8.87302ZM14.5477 10.4603C13.671 10.4603 12.9603 11.171 12.9603 12.0476V24.8433L17.425 21.271C18.0048 20.8072 18.8286 20.8072 19.4084 21.271L23.873 24.8433V12.0476C23.873 11.171 23.1624 10.4603 22.2857 10.4603H14.5477Z" fill="#92929D"/>
</svg>
