<svg width="14" height="15" viewBox="0 0 14 15" fill="none" xmlns="http://www.w3.org/2000/svg">
<path fill-rule="evenodd" clip-rule="evenodd" d="M4.66305 3.36668C4.6296 3.70357 4.34536 3.96668 3.99967 3.96668C3.65398 3.96668 3.36975 3.70357 3.3363 3.36668H1.66634V4.43334H12.333V3.36668H11.263C11.2296 3.70357 10.9454 3.96668 10.5997 3.96668C10.254 3.96668 9.96975 3.70357 9.9363 3.36668H4.66305ZM4.66305 3.36668H9.9363H4.66305ZM3.33301 2.03334V1.50001C3.33301 1.13182 3.63148 0.833344 3.99967 0.833344C4.36786 0.833344 4.66634 1.13182 4.66634 1.50001V2.03334H9.93301V1.50001C9.93301 1.13182 10.2315 0.833344 10.5997 0.833344C10.9679 0.833344 11.2663 1.13182 11.2663 1.50001V2.03334H12.3997C13.0992 2.03334 13.6663 2.60045 13.6663 3.30001V12.1667C13.6663 13.2712 12.7709 14.1667 11.6663 14.1667H2.33301C1.22844 14.1667 0.333008 13.2712 0.333008 12.1667V3.30001C0.333008 2.60045 0.900114 2.03334 1.59967 2.03334H3.33301ZM12.333 5.76668H1.66634V12.1667C1.66634 12.5349 1.96482 12.8333 2.33301 12.8333H11.6663C12.0345 12.8333 12.333 12.5349 12.333 12.1667V5.76668ZM3.39967 8.16668C3.03148 8.16668 2.73301 7.8682 2.73301 7.50001C2.73301 7.13182 3.03148 6.83334 3.39967 6.83334H5.79967C6.16786 6.83334 6.46634 7.13182 6.46634 7.50001C6.46634 7.8682 6.16786 8.16668 5.79967 8.16668H3.39967ZM3.39967 10.5667C3.03148 10.5667 2.73301 10.2682 2.73301 9.90001C2.73301 9.53182 3.03148 9.23334 3.39967 9.23334H8.19967C8.56786 9.23334 8.86634 9.53182 8.86634 9.90001C8.86634 10.2682 8.56786 10.5667 8.19967 10.5667H3.39967Z" fill="#92929D"/>
</svg>
