<svg width="16" height="16" viewBox="0 0 16 16" fill="none" xmlns="http://www.w3.org/2000/svg">
<path fill-rule="evenodd" clip-rule="evenodd" d="M3.12161 11.7581C0.736807 9.37327 0.736807 5.50675 3.12161 3.12194C5.50641 0.737143 9.37294 0.737143 11.7577 3.12194C13.9376 5.30178 14.1249 8.71959 12.3198 11.1122L14.7292 13.5217C15.3578 14.1502 14.415 15.093 13.7864 14.4645L11.4058 12.0838C9.00654 14.1374 5.39237 14.0288 3.12161 11.7581ZM10.8149 4.06475C8.95083 2.20065 5.92852 2.20065 4.06442 4.06475C2.20032 5.92886 2.20032 8.95116 4.06442 10.8153C5.92852 12.6794 8.95083 12.6794 10.8149 10.8153C12.679 8.95116 12.679 5.92886 10.8149 4.06475Z" fill="#00ABFF"/>
</svg>
