<svg width="36" height="36" viewBox="0 0 36 36" fill="none" xmlns="http://www.w3.org/2000/svg">
<rect x="0.5" y="0.5" width="35" height="35" rx="9.5" stroke="#E2E2EA"/>
<path fill-rule="evenodd" clip-rule="evenodd" d="M20.5003 12.1667C20.5003 10.3257 21.9927 8.83333 23.8337 8.83333C25.6746 8.83333 27.167 10.3257 27.167 12.1667C27.167 14.0076 25.6746 15.5 23.8337 15.5C22.6958 15.5 21.6912 14.9299 21.0897 14.0598L15.307 16.8787C15.4322 17.2291 15.5003 17.6066 15.5003 18C15.5003 18.3663 15.4413 18.7187 15.3321 19.0484L21.0817 21.9519C21.6822 21.0752 22.6907 20.5 23.8337 20.5C25.6746 20.5 27.167 21.9924 27.167 23.8333C27.167 25.6743 25.6746 27.1667 23.8337 27.1667C21.9927 27.1667 20.5003 25.6743 20.5003 23.8333C20.5003 23.7319 20.5049 23.6314 20.5137 23.5323L14.4213 20.4555C13.8278 21.0006 13.0363 21.3333 12.167 21.3333C10.326 21.3333 8.83366 19.841 8.83366 18C8.83366 16.1591 10.326 14.6667 12.167 14.6667C13.0055 14.6667 13.7717 14.9763 14.3575 15.4874L20.5154 12.4856C20.5054 12.3806 20.5003 12.2742 20.5003 12.1667ZM25.5003 12.1667C25.5003 11.2462 24.7541 10.5 23.8337 10.5C22.9132 10.5 22.167 11.2462 22.167 12.1667C22.167 13.0871 22.9132 13.8333 23.8337 13.8333C24.7541 13.8333 25.5003 13.0871 25.5003 12.1667ZM25.5003 23.8333C25.5003 22.9129 24.7541 22.1667 23.8337 22.1667C22.9132 22.1667 22.167 22.9129 22.167 23.8333C22.167 24.7538 22.9132 25.5 23.8337 25.5C24.7541 25.5 25.5003 24.7538 25.5003 23.8333ZM12.167 16.3333C13.0875 16.3333 13.8337 17.0795 13.8337 18C13.8337 18.9205 13.0875 19.6667 12.167 19.6667C11.2465 19.6667 10.5003 18.9205 10.5003 18C10.5003 17.0795 11.2465 16.3333 12.167 16.3333Z" fill="#92929D"/>
</svg>
